<?xml version="1.0" encoding="UTF-8"?>
<!DOCTYPE svg PUBLIC "-//W3C//DTD SVG 1.1//EN" "http://www.w3.org/Graphics/SVG/1.1/DTD/svg11.dtd">
<svg xmlns="http://www.w3.org/2000/svg" version="1.1" width="434px" height="127px" style="shape-rendering:geometricPrecision; text-rendering:geometricPrecision; image-rendering:optimizeQuality; fill-rule:evenodd; clip-rule:evenodd" xmlns:xlink="http://www.w3.org/1999/xlink">
<g><path style="opacity:1" fill="#f5f5dc" d="M 338.5,6.5 C 343.599,6.17463 348.599,6.67463 353.5,8C 358.951,12.754 358.617,17.0873 352.5,21C 349.26,21.0991 346.094,20.5991 343,19.5C 339.645,19.7524 337.312,21.4191 336,24.5C 335.502,27.4816 335.335,30.4816 335.5,33.5C 339.846,33.3343 344.179,33.501 348.5,34C 355.313,37.4277 355.979,41.7611 350.5,47C 345.511,47.4993 340.511,47.6659 335.5,47.5C 335.667,63.5035 335.5,79.5035 335,95.5C 331.026,102.22 326.36,102.886 321,97.5C 320.667,81.1667 320.333,64.8333 320,48.5C 316.589,47.7069 313.089,47.2069 309.5,47C 304.98,43.3925 304.647,39.5591 308.5,35.5C 312.288,33.7442 316.288,33.0775 320.5,33.5C 318.658,19.0457 324.658,10.0457 338.5,6.5 Z"/></g>
<g><path style="opacity:1" fill="#f5f5dd" d="M 281.5,9.5 C 293.644,7.13416 297.644,11.6342 293.5,23C 279.725,27.0605 275.725,22.5605 281.5,9.5 Z"/></g>
<g><path style="opacity:1" fill="#f5f5dc" d="M 17.5,11.5 C 29.5046,11.3335 41.5046,11.5001 53.5,12C 68.8464,17.8452 75.6797,29.0119 74,45.5C 71.4599,58.7068 63.6266,66.5401 50.5,69C 42.5069,69.4997 34.5069,69.6664 26.5,69.5C 26.6665,78.8393 26.4998,88.1726 26,97.5C 21.6667,101.5 17.3333,101.5 13,97.5C 12.3333,70.1667 12.3333,42.8333 13,15.5C 14.3968,13.9297 15.8968,12.5964 17.5,11.5 Z M 26.5,26.5 C 34.84,26.3336 43.1733,26.5003 51.5,27C 59.0454,32.6813 60.8788,39.8479 57,48.5C 55.8333,51 54,52.8333 51.5,54C 43.1733,54.4997 34.84,54.6664 26.5,54.5C 26.5,45.1667 26.5,35.8333 26.5,26.5 Z"/></g>
<g><path style="opacity:1" fill="#f5f5dc" d="M 241.5,17.5 C 244.559,17.7966 247.059,19.1299 249,21.5C 250.266,25.3951 250.766,29.3951 250.5,33.5C 254.936,33.2101 259.27,33.7101 263.5,35C 267.731,39.4784 267.398,43.4784 262.5,47C 258.514,47.4988 254.514,47.6655 250.5,47.5C 250.333,60.1711 250.5,72.8377 251,85.5C 252.126,86.9436 253.626,87.6102 255.5,87.5C 264.84,85.517 267.507,88.8504 263.5,97.5C 256.105,101.969 248.438,102.136 240.5,98C 238.622,96.4571 237.122,94.6238 236,92.5C 234.566,77.5583 234.066,62.5583 234.5,47.5C 230.416,47.9569 226.583,47.2902 223,45.5C 220.777,41.6123 221.277,38.1123 224.5,35C 227.726,33.8011 231.059,33.3011 234.5,33.5C 232.712,26.0755 235.046,20.7422 241.5,17.5 Z"/></g>
<g><path style="opacity:1" fill="#f5f5dc" d="M 111.5,31.5 C 141.131,30.631 154.965,44.9643 153,74.5C 147.431,94.3814 134.265,103.548 113.5,102C 98.2245,99.3915 88.7245,90.5582 85,75.5C 81.3873,53.0233 90.2206,38.3566 111.5,31.5 Z M 114.5,45.5 C 129.563,44.7277 137.563,51.8944 138.5,67C 137.579,79.2537 131.079,86.4204 119,88.5C 104.202,85.6728 97.8684,76.6728 100,61.5C 101.919,53.4186 106.753,48.0852 114.5,45.5 Z"/></g>
<g><path style="opacity:1" fill="#f5f5dc" d="M 182.5,31.5 C 191.783,30.488 200.45,32.3214 208.5,37C 214.084,41.1492 214.751,45.8158 210.5,51C 205.785,52.4735 202.119,51.1401 199.5,47C 193.293,43.1885 186.96,42.8552 180.5,46C 177.634,50.221 178.301,53.8876 182.5,57C 190.975,59.6027 199.308,62.6027 207.5,66C 218.076,76.353 218.076,86.6863 207.5,97C 194.023,104.389 180.69,104.055 167.5,96C 162.769,93.0443 160.936,88.8776 162,83.5C 163.501,81.4164 165.501,80.0831 168,79.5C 173.232,83.05 178.732,86.2167 184.5,89C 188.5,89.6667 192.5,89.6667 196.5,89C 202.319,85.9017 202.986,81.9017 198.5,77C 189.325,74.1235 180.325,70.7902 171.5,67C 163.979,59.657 162.479,51.157 167,41.5C 171.205,36.4922 176.372,33.1589 182.5,31.5 Z"/></g>
<g><path style="opacity:1" fill="#f5f5dc" d="M 284.5,32.5 C 288.426,32.0466 291.592,33.3799 294,36.5C 294.667,56.5 294.667,76.5 294,96.5C 290.605,101.392 286.438,102.225 281.5,99C 280.874,98.2496 280.374,97.4162 280,96.5C 279.333,76.8333 279.333,57.1667 280,37.5C 281.025,35.313 282.525,33.6464 284.5,32.5 Z"/></g>
<g><path style="opacity:1" fill="#f5f5dc" d="M 396.5,126.5 C 391.5,126.5 386.5,126.5 381.5,126.5C 378.678,125.493 375.678,124.66 372.5,124C 366.672,121.194 365.339,117.028 368.5,111.5C 370.109,110.112 371.942,109.112 374,108.5C 383.741,113.714 393.408,113.714 403,108.5C 405.05,105.852 406.216,102.852 406.5,99.5C 407.788,97.9652 407.788,96.2985 406.5,94.5C 405.893,94.6236 405.56,94.9569 405.5,95.5C 392.441,105.401 379.941,104.734 368,93.5C 366.073,90.0519 364.739,86.3852 364,82.5C 363.333,67.5 363.333,52.5 364,37.5C 368.171,31.271 372.837,30.9377 378,36.5C 379.284,51.0988 379.95,65.7655 380,80.5C 382.525,85.524 386.692,88.1907 392.5,88.5C 399.68,88.6702 404.18,85.3368 406,78.5C 406.051,64.0985 406.718,49.7652 408,35.5C 412.755,31.2407 417.088,31.574 421,36.5C 422.133,47.2647 422.633,58.098 422.5,69C 422.587,81.2021 422.087,93.3688 421,105.5C 419.923,110.823 417.423,115.323 413.5,119C 408.218,122.647 402.552,125.147 396.5,126.5 Z"/></g>
<g><path style="opacity:1" fill="#f7f7e5" d="M 405.5,95.5 C 405.56,94.9569 405.893,94.6236 406.5,94.5C 407.788,96.2985 407.788,97.9652 406.5,99.5C 406.768,97.901 406.434,96.5676 405.5,95.5 Z"/></g>
</svg>
